<svg version="1.1" id="Layer_1" xmlns="http://www.w3.org/2000/svg" xmlns:xlink="http://www.w3.org/1999/xlink" x="0px" y="0px" viewBox="0 0 128 128" enable-background="new 0 0 128 128" xml:space="preserve">
<g>
	<g>
		<g>
			<path fill="#52DDB2" d="M64,62L64,62L64,62c-9.7-7.6-9.7-22.4,0-30l0,0l0,0C73.7,39.6,73.7,54.3,64,62z"></path>
		</g>
	</g>
	<g>
		<g>
			<path fill="#444B54" d="M56.8,47.9c-0.1,0-0.2,0-0.3,0c-1.6-0.2-2.8-1.7-2.7-3.3c0.7-5.9,3.6-11.2,8.3-14.9
				c1.3-1,3.2-0.8,4.2,0.5c1,1.3,0.8,3.2-0.5,4.2c-3.4,2.7-5.6,6.5-6.1,10.9C59.6,46.7,58.3,47.9,56.8,47.9z"></path>
		</g>
	</g>
	<g>
		<g>
			<path fill="#2B9E7D" d="M64,62L64,62L64,62c-1.5-12.3,8.9-22.7,21.2-21.2l0,0l0,0C86.7,53,76.3,63.5,64,62z"></path>
		</g>
	</g>
	<g>
		<g>
			<path fill="#FFFFFF" d="M63.7,62L63.7,62L63.7,62c1.5-12.3-8.9-22.7-21.2-21.2l0,0l0,0C41,53,51.4,63.5,63.7,62z"></path>
		</g>
	</g>
	<g>
		<g>
			<path fill="#444B54" d="M66.4,65.1c-0.8,0-1.7,0-2.5-0.1c-0.1,0-0.3,0-0.5,0c-1.6-0.2-2.8-1.7-2.6-3.3c0,0,0-0.2,0-0.2
				c0.1-1.1,0.8-2,1.8-2.5c0.8-0.3,1.7-0.3,2.5,0.1c4.7,0.4,9.2-1.3,12.6-4.7c2.9-2.9,4.6-6.7,4.7-10.8C79,43.7,75.7,44.9,73,47
				c-0.9,0.7-2,0.8-3,0.4c-1-0.4-1.7-1.3-1.8-2.4c-0.5-4.3-2.7-8-6-10.7c-1.3-1-1.5-2.9-0.5-4.2c1-1.3,2.9-1.5,4.2-0.5
				c3.4,2.7,5.9,6.2,7.3,10.3c3.8-1.9,8.1-2.6,12.4-2.1c1.4,0.2,2.4,1.2,2.6,2.6c0.8,6.8-1.5,13.4-6.3,18.3
				C77.7,62.8,72.2,65.1,66.4,65.1z"></path>
		</g>
	</g>
	<g>
		<g>
			<path fill="#444B54" d="M42.6,49.2c-1.4,0-2.7-1-3-2.5c-0.3-2.1-0.4-4.2-0.1-6.3c0.2-1.4,1.2-2.4,2.6-2.6c6-0.7,11.9,1,16.6,4.8
				c1.3,1,1.5,2.9,0.4,4.2c-1,1.3-2.9,1.5-4.2,0.4c-2.8-2.2-6.1-3.5-9.5-3.6c0,0.7,0.1,1.4,0.2,2.1c0.3,1.6-0.8,3.2-2.5,3.4
				C42.9,49.2,42.8,49.2,42.6,49.2z"></path>
		</g>
	</g>
	<g>
		<g>
			<path fill="#FF697D" d="M47.6,54c4.3-0.2,8.4,0.4,12.2,1.7c2.7,0.9,5.7,0.9,8.4,0c3.8-1.2,7.9-1.8,12.2-1.7
				c17.7,0.7,32.3,14.8,33.5,32.5C115.3,107,99.1,124,79,124c-5.4,0-10.5-1.2-15-3.4c-4.5,2.2-9.6,3.4-15,3.4
				c-20.1,0-36.3-17-34.9-37.4C15.3,68.9,29.9,54.7,47.6,54z"></path>
		</g>
	</g>
	<g>
		<g>
			<path fill="#FFFFFF" d="M25.5,75c-0.6,0-1.2-0.2-1.8-0.6c-1.3-1-1.6-2.9-0.7-4.2c4.8-6.7,12-11.2,20-12.7
				c1.6-0.3,3.2,0.8,3.5,2.4c0.3,1.6-0.8,3.2-2.4,3.5c-6.5,1.2-12.3,4.9-16.2,10.3C27.4,74.5,26.5,75,25.5,75z"></path>
		</g>
	</g>
	<g>
		<g>
			<path fill="#FFFFFF" d="M20.6,86.2c-0.8,0-1.6-0.3-2.1-0.9c-0.6-0.5-0.9-1.3-0.9-2.1c0-0.2,0-0.4,0.1-0.6c0-0.2,0.1-0.4,0.2-0.6
				c0.1-0.2,0.2-0.4,0.3-0.5c0.1-0.2,0.2-0.3,0.4-0.5c0.1-0.1,0.3-0.3,0.5-0.4c0.2-0.1,0.3-0.2,0.5-0.3c0.2-0.1,0.4-0.1,0.6-0.2
				c1-0.2,2,0.1,2.7,0.8c0.1,0.1,0.3,0.3,0.4,0.5c0.1,0.2,0.2,0.3,0.3,0.5c0.1,0.2,0.1,0.4,0.2,0.6c0,0.2,0.1,0.4,0.1,0.6
				c0,0.8-0.3,1.6-0.9,2.1C22.1,85.8,21.4,86.2,20.6,86.2z"></path>
		</g>
	</g>
	<g>
		<g>
			<path fill="#C95065" d="M66.3,121.6c0.4,0.2,0.8,0.3,1.2,0.5c0.2,0.1,0.5,0.1,0.7,0.2c0.4,0.1,0.7,0.2,1.1,0.4
				c0.3,0.1,0.5,0.1,0.8,0.2c0.4,0.1,0.7,0.2,1.1,0.3c0.3,0.1,0.6,0.1,0.8,0.2c0.4,0.1,0.7,0.2,1.1,0.2c0.3,0,0.6,0.1,0.9,0.1
				c0.4,0.1,0.7,0.1,1.1,0.1c0.3,0,0.6,0.1,0.9,0.1c0.4,0,0.7,0.1,1.1,0.1c0.3,0,0.6,0,0.9,0c0.4,0,0.7,0,1.1,0c0.2,0,0.4,0,0.6,0
				c0.4,0,0.8,0,1.1,0c0.4,0,0.7,0,1.1-0.1c0.2,0,0.4,0,0.6,0c0.5-0.1,1-0.1,1.6-0.2c0,0,0,0,0.1,0c15.3-2.3,27.6-14.6,29.6-30.1
				c0.1-0.4,0.1-0.8,0.1-1.2c0-0.2,0-0.3,0-0.5c0-0.5,0.1-0.9,0.1-1.4c0,0,0,0,0,0c0-1.2,0-2.5-0.1-3.8
				C112.7,69,98.3,54.9,80.8,54.1C90.8,59.2,99,69.6,99,82c0,17.7-7,33-25,33c-5,0-7.9-4.8-11-2.8c-5.6,3.5-11.9,6-19,4.8
				c-0.1,0-0.1,0-0.2,0c-6.3,0-7.3,5.2-1.3,6.4c0.2,0,0.4,0.1,0.6,0.1c0.2,0,0.5,0.1,0.7,0.1c0.3,0.1,0.7,0.1,1.1,0.1
				c0.2,0,0.4,0.1,0.7,0.1c0.4,0,0.8,0.1,1.2,0.1c0.2,0,0.4,0,0.6,0c0.6,0,1.2,0,1.7,0c5.4,0,10.5-1.2,15-3.4
				c0.6,0.3,1.1,0.5,1.7,0.8C65.9,121.5,66.1,121.5,66.3,121.6z"></path>
		</g>
	</g>
	<g>
		<g>
			<path fill="#444B54" d="M79,127c-2.4,0-4.9-0.2-7.3-0.7c-5.1-1-10.4-1-15.5,0c-2.4,0.5-4.8,0.7-7.3,0.7
				c-10.5,0-20.6-4.4-27.8-12.1C14,107.2,10.4,97,11.1,86.4C12.4,67.3,28.4,51.8,47.5,51c4.2-0.2,8.3,0.3,12.2,1.5
				c0.8,0.2,1.5,0.4,2.2,0.6c2.4,0.6,5.2,1.2,10.7,4c1.5,0.7,2.1,2.5,1.4,4s-2.5,2.1-4,1.4c-4.9-2.4-7.2-3-9.5-3.5
				c-0.8-0.2-1.6-0.4-2.5-0.6c-3.3-1-6.8-1.4-10.3-1.3c-16.1,0.6-29.6,13.7-30.7,29.7c-0.6,9,2.4,17.5,8.5,24.1
				C31.7,117.4,40,121,49,121c2.1,0,4.1-0.2,6.1-0.6c5.9-1.1,11.9-1.1,17.8,0c2,0.4,4.1,0.6,6.1,0.6c9,0,17.3-3.6,23.4-10.2
				c6.1-6.5,9.1-15.1,8.5-24.1C109.8,70.7,96.4,57.6,80.3,57c-1.7-0.1-2.9-1.5-2.9-3.1c0.1-1.7,1.4-3,3.1-2.9
				c19.1,0.7,35.1,16.3,36.4,35.3c0.7,10.7-2.9,20.8-10.1,28.6C99.6,122.6,89.5,127,79,127z"></path>
		</g>
	</g>
	<g>
		<g>
			<path fill="#444B54" d="M109,127H19c-1.7,0-3-1.3-3-3s1.3-3,3-3h90c1.7,0,3,1.3,3,3S110.7,127,109,127z"></path>
		</g>
	</g>
	<g>
		<g>
			<path fill="#444B54" d="M124,127c-0.2,0-0.4,0-0.6-0.1c-0.2,0-0.4-0.1-0.6-0.2c-0.2-0.1-0.3-0.2-0.5-0.3
				c-0.2-0.1-0.3-0.2-0.5-0.4c-0.1-0.1-0.3-0.3-0.4-0.4c-0.1-0.2-0.2-0.3-0.3-0.5c-0.1-0.2-0.1-0.4-0.2-0.6c0-0.2-0.1-0.4-0.1-0.6
				c0-0.2,0-0.4,0.1-0.6c0-0.2,0.1-0.4,0.2-0.6c0.1-0.2,0.2-0.3,0.3-0.5c0.1-0.2,0.2-0.3,0.4-0.5s0.3-0.3,0.5-0.4
				c0.2-0.1,0.3-0.2,0.5-0.3c0.2-0.1,0.4-0.1,0.6-0.2c0.4-0.1,0.8-0.1,1.2,0c0.2,0,0.4,0.1,0.6,0.2c0.2,0.1,0.4,0.2,0.5,0.3
				c0.2,0.1,0.3,0.2,0.5,0.4c0.1,0.1,0.3,0.3,0.4,0.5c0.1,0.2,0.2,0.3,0.3,0.5c0.1,0.2,0.1,0.4,0.2,0.6c0,0.2,0.1,0.4,0.1,0.6
				c0,0.2,0,0.4-0.1,0.6c0,0.2-0.1,0.4-0.2,0.6s-0.2,0.4-0.3,0.5c-0.1,0.2-0.2,0.3-0.4,0.4C125.6,126.7,124.8,127,124,127z"></path>
		</g>
	</g>
</g>
</svg>